<svg width="16" height="16" viewBox="0 0 16 16" fill="none" xmlns="http://www.w3.org/2000/svg">
<path d="M4.50662 14.6673H11.4933C13.3333 14.6673 14.0666 13.5407 14.1533 12.1673L14.4999 6.66065C14.5933 5.22065 13.4466 4.00065 11.9999 4.00065C11.5933 4.00065 11.2199 3.76732 11.0333 3.40732L10.5533 2.44065C10.2466 1.83398 9.44662 1.33398 8.76662 1.33398H7.23995C6.55328 1.33398 5.75328 1.83398 5.44662 2.44065L4.96662 3.40732C4.77995 3.76732 4.40662 4.00065 3.99995 4.00065C2.55328 4.00065 1.40662 5.22065 1.49995 6.66065L1.84662 12.1673C1.92662 13.5407 2.66662 14.6673 4.50662 14.6673Z" stroke="#702A7D" stroke-linecap="round" stroke-linejoin="round"/>
<path d="M7 5.33398H9" stroke="#702A7D" stroke-linecap="round" stroke-linejoin="round"/>
<path d="M7.99992 11.9993C9.19325 11.9993 10.1666 11.026 10.1666 9.83268C10.1666 8.63935 9.19325 7.66602 7.99992 7.66602C6.80659 7.66602 5.83325 8.63935 5.83325 9.83268C5.83325 11.026 6.80659 11.9993 7.99992 11.9993Z" stroke="#702A7D" stroke-linecap="round" stroke-linejoin="round"/>
</svg>
