<svg width="24" height="25" viewBox="0 0 24 25" fill="none" xmlns="http://www.w3.org/2000/svg">
<path d="M15 23.25L9 23.25C3.57 23.25 1.25 20.93 1.25 15.5L1.25 9.5C1.25 4.07 3.57 1.75 9 1.75L11 1.75C11.41 1.75 11.75 2.09 11.75 2.5C11.75 2.91 11.41 3.25 11 3.25L9 3.25C4.39 3.25 2.75 4.89 2.75 9.5L2.75 15.5C2.75 20.11 4.39 21.75 9 21.75L15 21.75C19.61 21.75 21.25 20.11 21.25 15.5V13.5C21.25 13.09 21.59 12.75 22 12.75C22.41 12.75 22.75 13.09 22.75 13.5V15.5C22.75 20.93 20.43 23.25 15 23.25Z" fill="#0D1326"/>
<path d="M8.50008 18.19C7.89008 18.19 7.33008 17.97 6.92008 17.57C6.43008 17.08 6.22008 16.37 6.33008 15.62L6.76008 12.61C6.84008 12.03 7.22008 11.28 7.63008 10.87L15.5101 2.99C17.5001 0.999998 19.5201 0.999998 21.5101 2.99C22.6001 4.08 23.0901 5.19 22.9901 6.3C22.9001 7.2 22.4201 8.08 21.5101 8.98L13.6301 16.86C13.2201 17.27 12.4701 17.65 11.8901 17.73L8.88008 18.16C8.75008 18.19 8.62008 18.19 8.50008 18.19ZM16.5701 4.05L8.69008 11.93C8.50008 12.12 8.28008 12.56 8.24008 12.82L7.81008 15.83C7.77008 16.12 7.83008 16.36 7.98008 16.51C8.13008 16.66 8.37008 16.72 8.66008 16.68L11.6701 16.25C11.9301 16.21 12.3801 15.99 12.5601 15.8L20.4401 7.92C21.0901 7.27 21.4301 6.69 21.4801 6.15C21.5401 5.5 21.2001 4.81 20.4401 4.04C18.8401 2.44 17.7401 2.89 16.5701 4.05Z" fill="#0D1326"/>
<path d="M19.8501 10.33C19.7801 10.33 19.7101 10.32 19.6501 10.3C17.0201 9.56 14.9301 7.47 14.1901 4.84C14.0801 4.44 14.3101 4.03 14.7101 3.91C15.1101 3.8 15.5201 4.03 15.6301 4.43C16.2301 6.56 17.9201 8.25 20.0501 8.85C20.4501 8.96 20.6801 9.38 20.5701 9.78C20.4801 10.12 20.1801 10.33 19.8501 10.33Z" fill="#0D1326"/>
</svg>
